<?xml version="1.0" encoding="UTF-8"?>
<svg xmlns="http://www.w3.org/2000/svg" viewBox="0 0 703.5 147.1">
  <defs>
    <style>
      .cls-1 {
        fill: #f7b210;
      }

      .cls-2 {
        fill: #f07424;
      }

      .cls-3 {
        fill: #ffff42;
      }

      .cls-4 {
        fill: #91daf6;
      }

      .cls-5 {
        fill: #23a5df;
      }

      .cls-6 {
        fill: #37e9ad;
      }
    </style>
  </defs>
  <g id="a-fill-2">
    <rect class="cls-2" x="691.3" y="54.4" width="12.2" height="68.9" />
  </g>
  <g id="a-fill-1">
    <path class="cls-1" d="M661.4,97v-16.4c0-18.5-6.9-26.9-22-26.9s-22,8.4-22,26.9v16.4c0,18.5,6.9,26.9,22,26.9s22-8.4,22-26.9Z" />
  </g>
  <g id="_11-fill">
    <polygon class="cls-5" points="524.6 21.6 524.6 0 504.8 0 504.8 144.9 536.8 144.9 536.8 21.6 524.6 21.6" />
  </g>
  <g id="z-fill">
    <polygon class="cls-1" points="349.2 54.4 293.06 122.38 293.06 54.4 349.2 54.4" />
  </g>
  <g id="o-fill">
    <path class="cls-6" d="M248.6,97v-16.4c0-18.5-7.3-26.9-22.9-26.9s-22.9,8.4-22.9,26.9v16.4c.1,18.5,7.4,26.9,22.9,26.9s22.9-8.4,22.9-26.9Z" />
  </g>
  <g id="m-fill-3">
    <polygon class="cls-3" points="116.8 25.4 90.8 144.9 123.5 144.9 123.5 25.4 116.8 25.4" />
  </g>
  <g id="m-fill-2">
    <polygon class="cls-2" points="80 92 98.7 0 54.6 0 73.3 92 80 92" />
  </g>
  <g id="m-fill-1">
    <polygon class="cls-4" points="29.9 25.4 29.9 144.9 62.6 144.9 36.6 25.4 29.9 25.4" />
  </g>
  <g id="wordmark">
    <path d="M54.6,0l18.7,92h6.7L98.7,0h54.6V144.9h-29.8V25.4h-6.7l-26,119.5h-28.2L36.6,25.4h-6.7v119.5H0V0H54.6ZM225.7,30.7c34.4,0,54.4,20.6,54.4,58.2s-19.9,58.2-54.4,58.2-54.4-20.6-54.4-58.2c.1-37.7,20-58.2,54.4-58.2Zm0,93.2c15.5,0,22.9-8.4,22.9-26.9v-16.4c0-18.5-7.3-26.9-22.9-26.9s-22.9,8.4-22.9,26.9v16.4c.1,18.5,7.4,26.9,22.9,26.9Zm66.6-.6l56.9-68.9h-56.1v-21.6h91.6v21.6l-56.9,68.9h57.7v21.6h-93.2v-21.6Zm108.8-90.5h42v112.1h-29.8V54.4h-12.2v-21.6ZM413.3,0h29.8V21.6h-29.8V0ZM462.8,0h42V144.9h-29.8V21.6h-12.2V0ZM524.6,0h42V144.9h-29.8V21.6h-12.2V0Zm106,30.7c16.6,0,27.5,8.2,30.7,22.5h6.7v-20.4h35.5v21.6h-12.2V123.3h12.2v21.6h-17c-12,0-18.5-6.5-18.5-18.5v-1.9h-6.7c-3.2,14.3-14.1,22.5-30.7,22.5-26.2,0-44.7-22.3-44.7-58.2,0-35.9,18.5-58.1,44.7-58.1Zm8.8,93.2c15.1,0,22-8.4,22-26.9v-16.4c0-18.5-6.9-26.9-22-26.9s-22,8.4-22,26.9v16.4c0,18.5,6.9,26.9,22,26.9Z" />
  </g>
</svg>
